<mxfile host="app.diagrams.net" modified="2024-04-05T02:50:08.391Z" agent="Mozilla/5.0 (Windows NT 10.0; Win64; x64) AppleWebKit/537.36 (KHTML, like Gecko) Chrome/123.0.0.0 Safari/537.36 Edg/123.0.0.0" etag="OswKp6U187JeG2hZmO0u" version="21.6.1" type="github">
  <diagram id="C5RBs43oDa-KdzZeNtuy" name="Page-1">
    <mxGraphModel dx="1166" dy="711" grid="1" gridSize="10" guides="1" tooltips="1" connect="1" arrows="1" fold="1" page="1" pageScale="1" pageWidth="827" pageHeight="1169" math="0" shadow="0">
      <root>
        <mxCell id="WIyWlLk6GJQsqaUBKTNV-0" />
        <mxCell id="WIyWlLk6GJQsqaUBKTNV-1" parent="WIyWlLk6GJQsqaUBKTNV-0" />
        <mxCell id="1X7ULU5N5mZ-QIuYlgxG-6" style="edgeStyle=orthogonalEdgeStyle;rounded=0;orthogonalLoop=1;jettySize=auto;html=1;exitX=0.5;exitY=1;exitDx=0;exitDy=0;entryX=0.5;entryY=0;entryDx=0;entryDy=0;" edge="1" parent="WIyWlLk6GJQsqaUBKTNV-1" source="1X7ULU5N5mZ-QIuYlgxG-1" target="1X7ULU5N5mZ-QIuYlgxG-4">
          <mxGeometry relative="1" as="geometry" />
        </mxCell>
        <mxCell id="1X7ULU5N5mZ-QIuYlgxG-1" value="用户输入" style="rounded=1;whiteSpace=wrap;html=1;" vertex="1" parent="WIyWlLk6GJQsqaUBKTNV-1">
          <mxGeometry x="295" y="50" width="120" height="60" as="geometry" />
        </mxCell>
        <mxCell id="1X7ULU5N5mZ-QIuYlgxG-7" style="edgeStyle=orthogonalEdgeStyle;rounded=0;orthogonalLoop=1;jettySize=auto;html=1;" edge="1" parent="WIyWlLk6GJQsqaUBKTNV-1" source="1X7ULU5N5mZ-QIuYlgxG-4">
          <mxGeometry relative="1" as="geometry">
            <mxPoint x="160" y="250" as="targetPoint" />
          </mxGeometry>
        </mxCell>
        <mxCell id="1X7ULU5N5mZ-QIuYlgxG-12" style="edgeStyle=orthogonalEdgeStyle;rounded=0;orthogonalLoop=1;jettySize=auto;html=1;exitX=0.5;exitY=1;exitDx=0;exitDy=0;" edge="1" parent="WIyWlLk6GJQsqaUBKTNV-1" source="1X7ULU5N5mZ-QIuYlgxG-4" target="1X7ULU5N5mZ-QIuYlgxG-13">
          <mxGeometry relative="1" as="geometry">
            <mxPoint x="355" y="250" as="targetPoint" />
          </mxGeometry>
        </mxCell>
        <mxCell id="1X7ULU5N5mZ-QIuYlgxG-16" value="" style="edgeStyle=orthogonalEdgeStyle;rounded=0;orthogonalLoop=1;jettySize=auto;html=1;" edge="1" parent="WIyWlLk6GJQsqaUBKTNV-1" source="1X7ULU5N5mZ-QIuYlgxG-4" target="1X7ULU5N5mZ-QIuYlgxG-15">
          <mxGeometry relative="1" as="geometry" />
        </mxCell>
        <mxCell id="1X7ULU5N5mZ-QIuYlgxG-4" value="4，4，2" style="rhombus;whiteSpace=wrap;html=1;" vertex="1" parent="WIyWlLk6GJQsqaUBKTNV-1">
          <mxGeometry x="265" y="140" width="180" height="80" as="geometry" />
        </mxCell>
        <mxCell id="1X7ULU5N5mZ-QIuYlgxG-20" value="" style="edgeStyle=orthogonalEdgeStyle;rounded=0;orthogonalLoop=1;jettySize=auto;html=1;" edge="1" parent="WIyWlLk6GJQsqaUBKTNV-1" source="1X7ULU5N5mZ-QIuYlgxG-9" target="1X7ULU5N5mZ-QIuYlgxG-19">
          <mxGeometry relative="1" as="geometry">
            <Array as="points">
              <mxPoint x="160" y="410" />
              <mxPoint x="354" y="410" />
            </Array>
          </mxGeometry>
        </mxCell>
        <mxCell id="1X7ULU5N5mZ-QIuYlgxG-9" value="4个字母" style="rounded=1;whiteSpace=wrap;html=1;" vertex="1" parent="WIyWlLk6GJQsqaUBKTNV-1">
          <mxGeometry x="100" y="250" width="120" height="60" as="geometry" />
        </mxCell>
        <mxCell id="1X7ULU5N5mZ-QIuYlgxG-22" style="edgeStyle=orthogonalEdgeStyle;rounded=0;orthogonalLoop=1;jettySize=auto;html=1;exitX=0.5;exitY=1;exitDx=0;exitDy=0;entryX=0.5;entryY=0;entryDx=0;entryDy=0;" edge="1" parent="WIyWlLk6GJQsqaUBKTNV-1" source="1X7ULU5N5mZ-QIuYlgxG-13" target="1X7ULU5N5mZ-QIuYlgxG-19">
          <mxGeometry relative="1" as="geometry" />
        </mxCell>
        <mxCell id="1X7ULU5N5mZ-QIuYlgxG-13" value="4个数字" style="rounded=1;whiteSpace=wrap;html=1;" vertex="1" parent="WIyWlLk6GJQsqaUBKTNV-1">
          <mxGeometry x="295" y="270" width="120" height="60" as="geometry" />
        </mxCell>
        <mxCell id="1X7ULU5N5mZ-QIuYlgxG-23" style="edgeStyle=orthogonalEdgeStyle;rounded=0;orthogonalLoop=1;jettySize=auto;html=1;exitX=0.5;exitY=1;exitDx=0;exitDy=0;" edge="1" parent="WIyWlLk6GJQsqaUBKTNV-1" source="1X7ULU5N5mZ-QIuYlgxG-15" target="1X7ULU5N5mZ-QIuYlgxG-19">
          <mxGeometry relative="1" as="geometry">
            <Array as="points">
              <mxPoint x="550" y="410" />
              <mxPoint x="354" y="410" />
            </Array>
          </mxGeometry>
        </mxCell>
        <mxCell id="1X7ULU5N5mZ-QIuYlgxG-15" value="4个符号" style="rounded=1;whiteSpace=wrap;html=1;" vertex="1" parent="WIyWlLk6GJQsqaUBKTNV-1">
          <mxGeometry x="490" y="250" width="120" height="60" as="geometry" />
        </mxCell>
        <mxCell id="1X7ULU5N5mZ-QIuYlgxG-19" value="合并输出" style="whiteSpace=wrap;html=1;rounded=1;" vertex="1" parent="WIyWlLk6GJQsqaUBKTNV-1">
          <mxGeometry x="294" y="490" width="120" height="60" as="geometry" />
        </mxCell>
      </root>
    </mxGraphModel>
  </diagram>
</mxfile>
